<?xml version="1.0" standalone="no"?>
<!DOCTYPE svg PUBLIC "-//W3C//DTD SVG 20010904//EN"
 "http://www.w3.org/TR/2001/REC-SVG-20010904/DTD/svg10.dtd">
<svg version="1.0" xmlns="http://www.w3.org/2000/svg"
 width="691.000000pt" height="688.000000pt" viewBox="0 0 691.000000 688.000000"
 preserveAspectRatio="xMidYMid meet">

<g transform="translate(0.000000,688.000000) scale(0.100000,-0.100000)"
fill="#000000" stroke="none">
<path d="M2641 5633 c-56 -29 -75 -80 -74 -192 0 -92 1 -96 31 -122 16 -14 35
-28 43 -31 28 -9 -3 -29 -37 -22 l-34 6 1 -283 c0 -196 4 -295 12 -319 10 -28
10 -43 -1 -75 -11 -33 -13 -110 -7 -420 4 -209 11 -398 16 -420 6 -22 9 -47 8
-55 -1 -8 -3 -93 -5 -188 -2 -118 -6 -178 -15 -188 -8 -10 -10 -32 -5 -72 4
-31 6 -70 4 -87 -8 -74 0 -368 12 -450 21 -144 23 -184 18 -367 -1 -35 0 -90
2 -123 2 -33 -1 -112 -8 -175 -18 -172 -16 -823 2 -858 24 -46 58 -57 165 -55
342 7 370 9 392 29 35 31 42 52 24 70 -19 20 -19 58 0 74 11 9 15 33 15 90 0
72 -2 80 -26 97 l-25 19 31 67 32 67 -4 302 c-2 219 -7 309 -16 325 -7 13 -8
24 -3 27 6 4 5 20 0 42 -7 24 -6 59 2 112 8 50 12 164 10 330 l-3 252 22 0
c30 0 60 18 60 35 0 8 7 15 15 15 9 0 15 -9 15 -22 0 -40 29 -131 50 -160 11
-15 20 -36 20 -47 0 -32 39 -150 85 -256 23 -55 57 -149 75 -210 17 -60 41
-137 51 -170 11 -33 24 -81 29 -107 13 -68 95 -339 131 -433 17 -44 40 -111
50 -149 23 -80 43 -121 62 -129 10 -4 16 -29 19 -77 6 -79 22 -109 79 -148 29
-20 42 -23 89 -18 30 3 141 9 245 12 215 6 225 9 256 79 l19 44 -41 113 c-55
150 -109 266 -143 305 -22 26 -26 39 -21 63 9 41 -20 137 -45 150 -14 8 -19
17 -15 33 6 22 -65 225 -166 474 -61 151 -102 236 -135 280 -18 23 -22 39 -18
61 4 21 2 31 -10 35 -9 4 -16 18 -16 35 0 15 -16 75 -35 132 -19 57 -35 107
-35 112 0 4 35 33 78 64 42 31 98 77 124 102 41 40 46 49 41 76 -6 29 -5 30
12 16 16 -13 21 -11 55 27 77 87 155 284 200 507 20 95 21 113 9 148 -8 25 -9
42 -3 46 15 10 18 316 4 358 -6 19 -16 34 -21 34 -16 0 -9 29 10 39 31 17 20
278 -16 371 -3 8 -5 33 -4 55 2 51 -62 238 -111 325 -50 90 -99 143 -192 213
-96 71 -189 119 -288 149 -71 22 -88 22 -593 25 -482 3 -522 2 -554 -14z m927
-560 c157 -49 228 -223 238 -588 2 -99 1 -211 -4 -250 -5 -40 -5 -86 0 -109 6
-25 5 -59 -3 -95 -6 -31 -13 -81 -14 -111 -3 -67 -27 -172 -38 -168 -5 2 -31
-13 -58 -32 -48 -34 -51 -41 -34 -82 5 -13 2 -18 -9 -18 -9 0 -16 7 -16 15 0
24 -27 29 -63 12 -37 -17 -182 -37 -275 -37 l-63 0 -26 58 c-30 67 -42 191
-48 502 -2 110 -10 218 -17 249 -10 43 -11 112 -2 355 6 165 12 302 13 304 0
1 52 2 114 3 61 0 121 5 132 10 27 12 102 4 173 -18z"/>
</g>
</svg>
